<mxfile host="Electron" modified="2023-05-27T14:03:54.076Z" agent="Mozilla/5.0 (Macintosh; Intel Mac OS X 10_15_7) AppleWebKit/537.36 (KHTML, like Gecko) draw.io/21.2.1 Chrome/112.0.5615.87 Electron/24.1.2 Safari/537.36" etag="gX5sxIoH9nzIS08w9C-p" version="21.2.1" type="device">
  <diagram name="Page-1" id="H1nZVYqxkzLZFgEqRADx">
    <mxGraphModel dx="-820" dy="1783" grid="1" gridSize="10" guides="1" tooltips="1" connect="1" arrows="1" fold="1" page="1" pageScale="1" pageWidth="850" pageHeight="1100" math="0" shadow="0">
      <root>
        <mxCell id="0" />
        <mxCell id="1" parent="0" />
        <mxCell id="AsBp8XiL8Dx4Y6rQVwFH-10029" value="R, W: 100, H: 88, ORDER: 19, GC: {41, 23, 36, 12, 11, 1, 8, 2, 6, 7, 21, 17, 4, 13, 47, 15, 31, 9, 22} " style="text;html=1;strokeColor=none;fillColor=none;align=center;verticalAlign=middle;whiteSpace=wrap;rounded=0;" parent="1" vertex="1">
          <mxGeometry x="2150" width="1000" height="30" as="geometry" />
        </mxCell>
        <mxCell id="ywxbKJ70PrGvQsGv_-au-1" value="" style="group;flipV=1;" vertex="1" connectable="0" parent="1">
          <mxGeometry x="2150" y="50" width="1000" height="880" as="geometry" />
        </mxCell>
        <mxCell id="761dnnyQ54j-Cl0NHfQN-10030" value="41" style="rounded=0;whiteSpace=wrap;html=1;" parent="ywxbKJ70PrGvQsGv_-au-1" vertex="1">
          <mxGeometry y="470" width="410" height="410" as="geometry" />
        </mxCell>
        <mxCell id="761dnnyQ54j-Cl0NHfQN-10031" value="23" style="rounded=0;whiteSpace=wrap;html=1;" parent="ywxbKJ70PrGvQsGv_-au-1" vertex="1">
          <mxGeometry x="410" y="650" width="230" height="230" as="geometry" />
        </mxCell>
        <mxCell id="761dnnyQ54j-Cl0NHfQN-10032" value="36" style="rounded=0;whiteSpace=wrap;html=1;" parent="ywxbKJ70PrGvQsGv_-au-1" vertex="1">
          <mxGeometry x="640" y="520" width="360" height="360" as="geometry" />
        </mxCell>
        <mxCell id="761dnnyQ54j-Cl0NHfQN-10033" value="12" style="rounded=0;whiteSpace=wrap;html=1;" parent="ywxbKJ70PrGvQsGv_-au-1" vertex="1">
          <mxGeometry x="410" y="530" width="120" height="120" as="geometry" />
        </mxCell>
        <mxCell id="761dnnyQ54j-Cl0NHfQN-10034" value="11" style="rounded=0;whiteSpace=wrap;html=1;" parent="ywxbKJ70PrGvQsGv_-au-1" vertex="1">
          <mxGeometry x="530" y="540" width="110" height="110" as="geometry" />
        </mxCell>
        <mxCell id="761dnnyQ54j-Cl0NHfQN-10035" value="1" style="rounded=0;whiteSpace=wrap;html=1;" parent="ywxbKJ70PrGvQsGv_-au-1" vertex="1">
          <mxGeometry x="530" y="530" width="10" height="10" as="geometry" />
        </mxCell>
        <mxCell id="761dnnyQ54j-Cl0NHfQN-10036" value="8" style="rounded=0;whiteSpace=wrap;html=1;" parent="ywxbKJ70PrGvQsGv_-au-1" vertex="1">
          <mxGeometry x="540" y="460" width="80" height="80" as="geometry" />
        </mxCell>
        <mxCell id="761dnnyQ54j-Cl0NHfQN-10037" value="2" style="rounded=0;whiteSpace=wrap;html=1;" parent="ywxbKJ70PrGvQsGv_-au-1" vertex="1">
          <mxGeometry x="620" y="520" width="20" height="20" as="geometry" />
        </mxCell>
        <mxCell id="761dnnyQ54j-Cl0NHfQN-10038" value="6" style="rounded=0;whiteSpace=wrap;html=1;" parent="ywxbKJ70PrGvQsGv_-au-1" vertex="1">
          <mxGeometry x="410" y="470" width="60" height="60" as="geometry" />
        </mxCell>
        <mxCell id="761dnnyQ54j-Cl0NHfQN-10039" value="7" style="rounded=0;whiteSpace=wrap;html=1;" parent="ywxbKJ70PrGvQsGv_-au-1" vertex="1">
          <mxGeometry x="470" y="460" width="70" height="70" as="geometry" />
        </mxCell>
        <mxCell id="761dnnyQ54j-Cl0NHfQN-10040" value="21" style="rounded=0;whiteSpace=wrap;html=1;" parent="ywxbKJ70PrGvQsGv_-au-1" vertex="1">
          <mxGeometry x="620" y="310" width="210" height="210" as="geometry" />
        </mxCell>
        <mxCell id="761dnnyQ54j-Cl0NHfQN-10041" value="17" style="rounded=0;whiteSpace=wrap;html=1;" parent="ywxbKJ70PrGvQsGv_-au-1" vertex="1">
          <mxGeometry x="830" y="350" width="170" height="170" as="geometry" />
        </mxCell>
        <mxCell id="761dnnyQ54j-Cl0NHfQN-10042" value="4" style="rounded=0;whiteSpace=wrap;html=1;" parent="ywxbKJ70PrGvQsGv_-au-1" vertex="1">
          <mxGeometry x="830" y="310" width="40" height="40" as="geometry" />
        </mxCell>
        <mxCell id="761dnnyQ54j-Cl0NHfQN-10043" value="13" style="rounded=0;whiteSpace=wrap;html=1;" parent="ywxbKJ70PrGvQsGv_-au-1" vertex="1">
          <mxGeometry x="870" y="220" width="130" height="130" as="geometry" />
        </mxCell>
        <mxCell id="761dnnyQ54j-Cl0NHfQN-10044" value="47" style="rounded=0;whiteSpace=wrap;html=1;" parent="ywxbKJ70PrGvQsGv_-au-1" vertex="1">
          <mxGeometry width="470" height="470" as="geometry" />
        </mxCell>
        <mxCell id="761dnnyQ54j-Cl0NHfQN-10045" value="15" style="rounded=0;whiteSpace=wrap;html=1;" parent="ywxbKJ70PrGvQsGv_-au-1" vertex="1">
          <mxGeometry x="470" y="310" width="150" height="150" as="geometry" />
        </mxCell>
        <mxCell id="761dnnyQ54j-Cl0NHfQN-10046" value="31" style="rounded=0;whiteSpace=wrap;html=1;" parent="ywxbKJ70PrGvQsGv_-au-1" vertex="1">
          <mxGeometry x="470" width="310" height="310" as="geometry" />
        </mxCell>
        <mxCell id="761dnnyQ54j-Cl0NHfQN-10047" value="9" style="rounded=0;whiteSpace=wrap;html=1;" parent="ywxbKJ70PrGvQsGv_-au-1" vertex="1">
          <mxGeometry x="780" y="220" width="90" height="90" as="geometry" />
        </mxCell>
        <mxCell id="761dnnyQ54j-Cl0NHfQN-10048" value="22" style="rounded=0;whiteSpace=wrap;html=1;" parent="ywxbKJ70PrGvQsGv_-au-1" vertex="1">
          <mxGeometry x="780" width="220" height="220" as="geometry" />
        </mxCell>
      </root>
    </mxGraphModel>
  </diagram>
</mxfile>
